<svg version="1.1" id="Layer_1" xmlns="http://www.w3.org/2000/svg" xmlns:xlink="http://www.w3.org/1999/xlink" x="0px" y="0px"
	 width="100%" viewBox="0 0 1024 1024" enable-background="new 0 0 1024 1024" xml:space="preserve">
<path fill="#FFFFFF" opacity="1.000000" stroke="none" 
	d="
M452.000000,1025.000000 
	C301.333344,1025.000000 151.166672,1025.000000 1.000000,1025.000000 
	C1.000000,683.666687 1.000000,342.333344 1.000000,1.000000 
	C342.333344,1.000000 683.666687,1.000000 1025.000000,1.000000 
	C1025.000000,342.333344 1025.000000,683.666687 1025.000000,1025.000000 
	C834.166687,1025.000000 643.333313,1025.000000 452.000000,1025.000000 
M188.980392,356.386261 
	C188.692307,356.198761 188.404221,356.011230 188.036667,355.973785 
	C188.036667,355.973785 188.151169,355.848358 187.972931,355.382324 
	C187.583817,355.077087 187.194717,354.771820 186.618851,354.275513 
	C186.618851,354.275513 186.373703,354.169281 186.228409,353.933472 
	C186.108231,353.790405 185.963531,353.679199 185.670975,353.331604 
	C185.670975,353.331604 185.430847,353.159790 185.080032,352.766296 
	C184.505859,352.365051 183.931671,351.963837 183.091019,352.002411 
	C183.186569,351.859924 183.282120,351.717468 183.050949,351.098297 
	C182.417114,350.676300 181.783264,350.254303 180.994431,349.980011 
	C180.994431,349.980011 181.160278,349.845642 180.868683,349.291046 
	C179.984573,348.752106 179.100449,348.213196 178.165405,347.797577 
	C178.165405,347.797577 178.295502,347.767944 178.063538,347.283966 
	C177.739517,347.145081 177.415482,347.006195 177.015549,346.994507 
	C177.015549,346.994507 177.114029,346.883759 176.761002,346.307343 
	C171.868805,343.819519 166.976593,341.331726 162.010742,338.950714 
	C162.010742,338.950714 162.119812,338.880463 161.794724,338.243805 
	C154.875473,336.498932 147.956223,334.754059 140.590378,332.939301 
	C140.590378,332.939301 140.138657,332.922729 139.746674,332.238129 
	C136.185837,331.875000 132.624985,331.511871 128.270447,330.963165 
	C126.708336,330.963165 125.146225,330.963165 123.531319,330.963165 
	C123.749077,333.015076 123.905823,334.492035 123.944328,336.833374 
	C125.460732,367.887207 140.764709,389.389587 169.588928,402.237976 
	C170.374847,402.542877 171.160782,402.847748 171.947037,403.063263 
	C171.947037,403.063263 171.861328,403.088562 172.323029,403.638367 
	C185.420441,409.749451 199.153366,413.395142 212.923187,414.122467 
	C214.038559,419.926239 215.103638,425.468262 216.020401,431.845276 
	C216.329239,435.627808 216.904633,439.410217 216.906815,443.192932 
	C216.938232,497.686005 216.892502,552.179077 216.865448,606.672180 
	C216.864639,608.298035 216.865341,609.923950 216.865341,611.999573 
	C218.808243,611.999573 220.429672,611.999512 222.051086,611.999573 
	C246.881439,611.999695 271.712189,612.075500 296.541870,611.948669 
	C303.017242,611.915588 309.489349,611.251038 316.752991,611.010376 
	C320.199097,610.185303 323.645203,609.360291 327.838959,608.318237 
	C330.322205,607.341431 332.805481,606.364624 335.275879,605.467346 
	C335.275879,605.467346 335.353851,605.487732 336.029968,605.270325 
	C338.798431,603.620422 341.566895,601.970520 344.192444,600.254822 
	C344.192444,600.254822 344.226349,600.408386 344.811127,600.240723 
	C345.252533,599.855591 345.693909,599.470398 346.045471,599.041931 
	C346.045471,599.041931 346.082001,599.134705 346.673126,598.917297 
	C347.558533,598.042908 348.443909,597.168579 349.215424,596.213135 
	C349.215424,596.213135 349.221985,596.352722 349.756500,596.155396 
	C349.958771,595.844727 350.161041,595.534119 350.186981,595.190063 
	C350.186981,595.190063 350.237000,595.362427 350.768311,595.156250 
	C350.959839,594.837769 351.151367,594.519226 351.198242,594.205139 
	C351.198242,594.205139 351.282684,594.322632 351.818726,594.055969 
	C352.273773,593.410217 352.728821,592.764404 353.084747,592.076782 
	C353.084747,592.076782 353.123291,592.177185 353.701965,591.875977 
	C354.515442,590.610718 355.328918,589.345459 356.049896,588.054932 
	C356.049896,588.054932 356.090668,588.141785 356.660278,587.741333 
	C358.436493,582.161499 360.212708,576.581604 362.060272,570.577393 
	C362.060272,570.577393 362.043610,570.147461 362.736664,569.725647 
	C363.748901,558.886536 363.614471,548.250854 357.217010,538.883423 
	C357.217010,538.883423 357.370972,538.832336 357.206573,538.157166 
	C355.822662,536.365479 354.438751,534.573792 352.978546,532.341187 
	C352.809784,532.050842 352.557922,531.918030 351.953766,531.350037 
	C350.988525,530.498596 350.023285,529.647156 348.923218,528.336914 
	C348.705627,528.062195 348.422485,527.942139 347.767334,527.441223 
	C347.222748,527.173584 346.678192,526.905945 346.166718,526.828003 
	C346.166718,526.828003 346.331573,526.728516 345.978729,526.153809 
	C340.638977,523.396729 335.299194,520.639709 329.995911,517.901489 
	C331.311890,517.086487 332.785126,516.174194 334.097229,515.294922 
	C334.097229,515.294922 334.188812,515.431458 334.818665,515.338623 
	C335.310059,514.977478 335.801453,514.616272 336.127594,514.242615 
	C336.127594,514.242615 336.191406,514.395569 336.878937,514.232544 
	C339.284760,512.502686 341.690552,510.772827 344.018707,509.045074 
	C344.018707,509.045074 344.042297,509.119080 344.562225,508.947571 
	C344.755493,508.648315 344.948761,508.349030 345.057037,508.049469 
	C345.057037,508.049469 345.080200,508.131226 345.551453,507.923096 
	C345.870972,507.533325 346.190491,507.143585 346.668060,506.614319 
	C346.668060,506.614319 346.813385,506.461578 347.234009,506.143707 
	C347.655609,505.583038 348.077209,505.022339 348.395782,504.217316 
	C348.395782,504.217316 348.558502,504.426758 349.019012,504.082184 
	C349.400543,503.419952 349.782104,502.757721 350.069061,502.065887 
	C350.069061,502.065887 350.105682,502.157959 350.696014,501.791931 
	C358.036346,489.208466 359.074432,476.232483 353.098846,462.944580 
	C353.098846,462.944580 353.224243,462.934265 353.103638,462.180145 
	C351.088043,458.724823 349.072449,455.269470 346.972473,451.376495 
	C346.816528,451.085754 346.573639,450.936035 346.009521,450.408752 
	C345.697998,450.206360 345.386444,450.003967 345.066284,449.933838 
	C345.066284,449.933838 345.197174,449.913116 344.990479,449.397003 
	C344.688263,449.196259 344.386047,448.995514 344.079590,448.907501 
	C344.079590,448.907501 344.187256,448.873871 343.935181,448.329437 
	C343.304718,447.858215 342.674255,447.386993 342.018524,446.991699 
	C342.018524,446.991699 342.088074,446.952118 341.795776,446.427032 
	C341.271088,446.148773 340.746399,445.870483 340.162933,445.772949 
	C340.162933,445.772949 340.351196,445.746948 340.106201,445.237518 
	C339.760895,445.094940 339.415588,444.952362 339.068726,444.915619 
	C339.068726,444.915619 339.169464,444.883270 338.802917,444.290497 
	C336.888153,443.467865 334.973419,442.645264 333.047089,441.921112 
	C333.047089,441.921112 333.144867,441.904480 332.874115,441.319366 
	C332.263550,441.155121 331.653015,440.990875 331.039856,440.930725 
	C331.039856,440.930725 331.141602,440.908691 330.801636,440.268707 
	C321.612152,438.509247 312.456482,435.475861 303.226776,435.230652 
	C276.190430,434.512451 249.124557,434.904266 222.047806,434.960785 
	C222.047806,434.960785 222.149765,434.964020 222.028061,434.327637 
	C221.703262,433.829193 221.378479,433.330780 221.035995,432.392212 
	C221.035995,432.392212 220.890564,431.976440 221.021408,431.080688 
	C220.772369,428.285126 220.477234,425.492706 220.288742,422.693054 
	C220.134888,420.408356 220.108475,418.115051 220.943817,416.005768 
	C233.383072,416.529541 245.666504,415.414398 257.653534,412.004120 
	C276.542969,406.630096 293.232574,397.100830 304.887573,381.279114 
	C312.038971,371.571106 316.392731,359.802216 322.464264,348.383667 
	C323.010254,347.063660 323.556244,345.743652 324.192017,344.206573 
	C309.406799,343.155579 295.143585,343.849121 280.289368,347.114044 
	C274.092163,349.756378 267.301727,351.527832 261.839508,355.249023 
	C254.020889,360.575439 246.793152,366.941223 240.037094,373.597992 
	C235.105453,378.457062 231.340881,384.500610 226.667786,390.575958 
	C226.053818,392.030121 225.439835,393.484283 224.922897,394.943176 
	C224.922897,394.943176 224.897690,394.849335 224.347290,395.303864 
	C221.904160,402.292419 219.461044,409.281006 216.746689,417.045441 
	C215.620178,414.681732 214.739624,412.834076 213.761932,410.252258 
	C213.505814,409.510010 213.025116,408.767181 213.026947,408.025574 
	C213.059769,394.676300 208.284637,382.920471 201.018570,371.308563 
	C200.399506,370.479950 199.780441,369.651337 199.075378,368.938965 
	C199.075378,368.938965 199.203918,368.872742 199.050949,368.353516 
	C198.797318,368.115295 198.543686,367.877075 198.264877,367.796722 
	C198.264877,367.796722 198.406540,367.722656 198.226318,367.168213 
	C197.850891,366.746521 197.475464,366.324799 196.997772,365.992310 
	C196.997772,365.992310 197.107834,365.914124 196.968643,365.402466 
	C196.689804,365.199799 196.410980,364.997131 196.111221,364.891937 
	C196.111221,364.891937 196.206985,364.864197 196.041122,364.347229 
	C195.777649,364.117065 195.514175,363.886902 195.216858,363.800964 
	C195.216858,363.800964 195.353333,363.743317 195.173584,363.233673 
	C194.899261,363.014252 194.624954,362.794830 194.322342,362.721466 
	C194.322342,362.721466 194.437027,362.626648 194.284180,362.182861 
	C194.138718,361.891266 193.916916,361.679779 193.532501,361.456635 
	C193.532501,361.456635 193.516586,361.331726 193.192719,360.848419 
	C192.493866,360.180695 191.795013,359.512939 190.969345,358.378296 
	C190.783524,358.080261 190.515350,357.919952 189.972229,357.402832 
	C189.686111,357.208496 189.399994,357.014191 189.076538,356.921722 
	C189.076538,356.921722 189.174774,356.875732 188.980392,356.386261 
M426.146851,581.310791 
	C427.120758,578.228943 428.094696,575.147095 429.930267,571.666016 
	C452.348175,571.585754 474.766113,571.503662 497.184082,571.446594 
	C497.468109,571.445862 497.752930,571.764771 498.240509,572.472778 
	C498.518799,572.975037 498.797089,573.477234 499.056183,574.752075 
	C502.979614,586.149902 506.832916,597.573059 510.923218,608.910645 
	C511.387909,610.198608 513.168579,611.879578 514.365967,611.901428 
	C526.483032,612.122742 538.605774,612.036316 551.524414,612.036316 
	C546.597290,599.327148 541.859558,587.106384 537.091003,574.097961 
	C536.899841,573.302124 536.785583,572.478149 536.506409,571.714478 
	C525.846558,542.562378 515.214050,513.400085 504.474884,484.277161 
	C500.839722,474.419067 496.929535,464.662445 493.104736,454.074310 
	C490.949951,447.709808 488.795197,441.345276 486.641174,434.982910 
	C472.924927,434.982910 459.773529,435.160248 446.632263,434.873383 
	C442.757660,434.788788 441.226685,436.190216 439.994385,439.624237 
	C424.194427,483.654816 408.261658,527.637695 392.356995,571.630737 
	C387.536285,584.965088 382.698730,598.293335 377.718781,612.038757 
	C390.090332,612.038757 401.901306,612.097839 413.708923,611.926331 
	C414.651306,611.912720 415.570557,610.306030 416.914825,608.841919 
	C419.896210,599.892090 422.877594,590.942322 426.146851,581.310791 
M618.068359,436.928711 
	C618.068359,436.928711 618.172546,436.888214 617.898254,436.105865 
	C616.872986,435.734772 615.848267,435.043274 614.822266,435.041229 
	C602.211609,435.016388 589.600708,435.092377 576.160583,435.403748 
	C576.104858,436.065002 576.000488,436.726288 576.000366,437.387543 
	C575.991394,494.504089 575.990540,551.620667 575.989075,608.737183 
	C575.989014,609.692322 575.989014,610.647461 575.989014,611.704041 
	C587.917236,611.704041 599.456543,611.704041 611.093811,611.704041 
	C611.093811,609.583008 611.091919,607.762451 611.093994,605.941895 
	C611.136597,568.311340 611.179749,530.680725 611.936890,493.070709 
	C613.232422,494.180450 614.848694,495.071381 615.776672,496.431824 
	C641.343567,533.913696 666.831482,571.449524 692.388184,608.938416 
	C693.236877,610.183350 694.649353,611.911072 695.825500,611.932007 
	C708.089294,612.151550 720.358582,612.067383 732.906189,612.067383 
	C732.906189,610.512573 732.906128,609.543091 732.906189,608.573669 
	C732.908081,574.908020 732.913818,541.242371 732.910645,507.576752 
	C732.908447,484.744141 732.925415,461.911316 732.803345,439.079315 
	C732.796326,437.755249 731.615295,436.437469 730.051086,435.007111 
	C719.142395,435.007111 708.233643,435.007111 696.950012,435.007111 
	C696.950012,473.980438 696.950012,512.482849 696.241089,551.034363 
	C695.561035,550.363464 694.746704,549.783630 694.220581,549.008179 
	C682.554138,531.816528 670.928162,514.597412 659.276733,497.395569 
	C645.862061,477.590668 632.430237,457.797394 618.923889,437.477844 
	C618.656128,437.261871 618.388428,437.045898 618.068359,436.928711 
M903.080139,582.008789 
	C872.053650,582.008606 841.027222,582.008423 809.947815,581.302063 
	C821.427673,566.231445 832.891479,551.148621 844.391113,536.093201 
	C862.245239,512.718689 880.123657,489.362854 898.465271,465.610626 
	C899.022949,464.767914 899.580627,463.925232 900.048279,463.051239 
	C900.048279,463.051239 900.083252,463.139923 900.711365,462.753540 
	C901.342346,461.432648 902.489502,460.123291 902.519165,458.788971 
	C902.692688,451.004211 902.604187,443.213623 902.604187,435.296997 
	C856.499329,435.296997 810.851196,435.296997 765.155762,435.296997 
	C765.155762,444.746277 765.155762,453.878448 765.411865,463.841156 
	C795.591980,463.860107 825.772156,463.879059 856.381531,464.333649 
	C854.998840,466.232269 853.675293,468.177368 852.224548,470.022430 
	C834.225159,492.915161 816.167236,515.762024 798.208618,538.686707 
	C787.039062,552.944946 776.012390,567.315063 764.267273,582.107239 
	C764.267273,592.001221 764.267273,601.895142 764.267273,611.712463 
	C811.011047,611.712463 857.897827,611.712463 905.017761,611.712463 
	C905.017761,602.113037 905.031799,592.807983 904.974792,583.503235 
	C904.972046,583.051514 904.344788,582.603577 903.080139,582.008789 
z"/>
<path fill="#4FC219" opacity="1.000000" stroke="none" 
	d="
M619.005859,437.999054 
	C632.430237,457.797394 645.862061,477.590668 659.276733,497.395569 
	C670.928162,514.597412 682.554138,531.816528 694.220581,549.008179 
	C694.746704,549.783630 695.561035,550.363464 696.997986,550.932251 
	C698.169922,549.009338 698.943176,547.189270 698.946960,545.367554 
	C699.018005,511.123108 699.095642,476.877899 698.883667,442.634613 
	C698.854309,437.895233 700.322937,436.682587 704.792969,436.902496 
	C711.758057,437.245056 718.755981,437.116821 725.731689,436.907959 
	C727.497620,436.855103 729.231812,435.742432 730.980591,435.116760 
	C731.615295,436.437469 732.796326,437.755249 732.803345,439.079315 
	C732.925415,461.911316 732.908447,484.744141 732.910645,507.576752 
	C732.913818,541.242371 732.908081,574.908020 732.906189,608.573669 
	C732.906128,609.543091 732.906189,610.512573 732.906189,612.067383 
	C720.358582,612.067383 708.089294,612.151550 695.825500,611.932007 
	C694.649353,611.911072 693.236877,610.183350 692.388184,608.938416 
	C666.831482,571.449524 641.343567,533.913696 615.776672,496.431824 
	C614.848694,495.071381 613.232422,494.180450 611.223389,493.288391 
	C610.341003,495.471466 610.026672,497.436707 610.024841,499.402252 
	C609.993164,534.361206 609.999451,569.320129 609.997559,604.279114 
	C609.997437,606.367493 609.997559,608.455811 609.997559,610.991699 
	C600.223145,610.991699 591.256775,610.799622 582.304993,611.078003 
	C578.233643,611.204590 576.916321,610.086548 576.927368,605.838867 
	C577.074158,549.572083 577.038940,493.304840 577.512817,437.023254 
	C591.375122,436.968628 604.773804,436.928406 618.172546,436.888214 
	C618.172546,436.888214 618.068359,436.928711 618.067261,437.125641 
	C618.379333,437.548065 618.692627,437.773560 619.005859,437.999054 
z"/>
<path fill="#4FC319" opacity="1.000000" stroke="none" 
	d="
M327.091309,608.535156 
	C323.645203,609.360291 320.199097,610.185303 316.067810,610.664246 
	C310.612976,610.542297 305.843781,610.948181 301.073578,610.960266 
	C275.445587,611.025269 249.815628,610.839661 224.190552,611.121887 
	C219.067673,611.178284 217.864334,609.782104 217.879822,604.756348 
	C218.058365,546.843872 217.986053,488.930695 217.980469,430.611633 
	C217.113708,425.908234 216.246948,421.610901 215.380173,417.313568 
	C216.074844,417.202637 216.769516,417.091705 217.464188,416.980774 
	C218.606308,421.979340 219.748428,426.977875 220.890564,431.976440 
	C220.890564,431.976440 221.035995,432.392212 221.048187,432.939941 
	C221.423508,433.979767 221.786621,434.471893 222.149750,434.964020 
	C222.149765,434.964020 222.047806,434.960785 222.115814,435.320618 
	C224.151184,436.118073 226.103561,436.847931 228.088150,436.949799 
	C262.421906,438.711700 297.038513,433.054932 331.141602,440.908691 
	C331.141602,440.908691 331.039856,440.930725 331.185669,441.171631 
	C331.935944,441.576477 332.540405,441.740479 333.144867,441.904480 
	C333.144867,441.904480 333.047089,441.921112 333.167114,442.215698 
	C335.247894,443.301270 337.208679,444.092255 339.169464,444.883270 
	C339.169464,444.883270 339.068726,444.915619 339.177673,445.136963 
	C339.641479,445.487854 339.996338,445.617401 340.351196,445.746948 
	C340.351196,445.746948 340.162933,445.772949 340.250397,446.012268 
	C340.921265,446.485107 341.504669,446.718597 342.088074,446.952118 
	C342.088074,446.952118 342.018524,446.991699 342.056030,447.299194 
	C342.791443,448.029114 343.489349,448.451477 344.187256,448.873871 
	C344.187256,448.873871 344.079590,448.907501 344.167786,449.122589 
	C344.569702,449.529480 344.883423,449.721313 345.197174,449.913116 
	C345.197174,449.913116 345.066284,449.933838 345.167206,450.142761 
	C345.593353,450.543549 345.918579,450.735443 346.243774,450.927338 
	C346.573639,450.936035 346.816528,451.085754 347.022217,451.966736 
	C349.122742,456.016083 351.173492,459.475159 353.224243,462.934265 
	C353.224243,462.934265 353.098846,462.944580 353.064636,463.309753 
	C353.328735,465.285858 353.612915,466.899628 353.927704,468.507355 
	C355.768524,477.908264 355.918945,487.183136 352.084442,496.219543 
	C351.271973,498.134155 350.757477,500.175201 350.105713,502.157959 
	C350.105682,502.157959 350.069061,502.065887 349.744965,502.093079 
	C349.133392,502.889130 348.845947,503.657928 348.558502,504.426758 
	C348.558502,504.426758 348.395782,504.217316 348.083984,504.279236 
	C347.452606,505.047943 347.132996,505.754761 346.813385,506.461578 
	C346.813385,506.461578 346.668060,506.614319 346.275635,506.542084 
	C345.615509,507.023621 345.347839,507.577423 345.080200,508.131226 
	C345.080200,508.131226 345.057037,508.049469 344.844727,508.143921 
	C344.435699,508.531921 344.239014,508.825500 344.042297,509.119080 
	C344.042297,509.119080 344.018707,509.045074 343.697144,509.069092 
	C340.980835,510.860565 338.586121,512.628052 336.191406,514.395569 
	C336.191406,514.395569 336.127594,514.242615 335.853577,514.189087 
	C335.115967,514.567444 334.652374,514.999451 334.188782,515.431458 
	C334.188812,515.431458 334.097229,515.294922 333.780579,515.199829 
	C332.072662,515.955505 330.620453,516.732910 329.380829,517.765625 
	C329.251038,517.873779 330.162048,519.973694 330.956665,520.328308 
	C336.024414,522.589966 341.194916,524.621338 346.331573,526.728516 
	C346.331573,526.728516 346.166718,526.828003 346.242615,527.051758 
	C346.903564,527.509277 347.488647,527.742981 348.073761,527.976685 
	C348.422485,527.942139 348.705627,528.062195 348.990906,528.934448 
	C350.113373,530.335632 351.168182,531.139221 352.223022,531.942749 
	C352.557922,531.918030 352.809784,532.050842 353.019165,532.923889 
	C354.496887,535.281860 355.933929,537.057068 357.370972,538.832336 
	C357.370972,538.832336 357.217010,538.883423 357.150818,539.204956 
	C361.171387,549.339355 362.709808,559.564880 362.043610,570.147461 
	C362.043610,570.147461 362.060272,570.577393 361.741394,571.025208 
	C359.645264,577.029297 357.867981,582.585510 356.090698,588.141785 
	C356.090668,588.141785 356.049896,588.054932 355.737732,588.075500 
	C354.658112,589.456482 353.890717,590.816833 353.123291,592.177185 
	C353.123291,592.177185 353.084747,592.076782 352.770599,592.096313 
	C352.065186,592.851440 351.673950,593.587036 351.282684,594.322632 
	C351.282684,594.322632 351.198242,594.205139 350.967102,594.257507 
	C350.569672,594.660706 350.403351,595.011597 350.237000,595.362427 
	C350.237000,595.362427 350.186981,595.190063 349.968750,595.250854 
	C349.574341,595.658630 349.398163,596.005676 349.221985,596.352722 
	C349.221985,596.352722 349.215424,596.213135 348.901978,596.181641 
	C347.752991,597.145020 346.917480,598.139832 346.081970,599.134644 
	C346.082001,599.134705 346.045471,599.041931 345.751831,599.062744 
	C345.047546,599.525208 344.636932,599.966797 344.226318,600.408386 
	C344.226349,600.408386 344.192444,600.254822 343.884827,600.204224 
	C340.836090,601.931702 338.094971,603.709717 335.353882,605.487732 
	C335.353851,605.487732 335.275879,605.467346 334.885193,605.301208 
	C332.026764,606.268433 329.559021,607.401794 327.091309,608.535156 
M321.329346,575.724487 
	C321.510406,575.396362 321.691437,575.068298 321.876068,574.874695 
	C321.876068,574.874695 321.751221,574.824524 322.488892,574.870117 
	C328.967896,568.352844 328.462921,560.151062 327.351410,552.150696 
	C326.911682,548.985840 324.400208,546.108765 322.926239,543.070190 
	C322.926239,543.070190 322.892517,543.163269 322.917877,542.445740 
	C321.785217,541.473816 320.652527,540.501892 319.985352,539.034180 
	C319.829712,539.200623 319.674072,539.367004 319.583069,538.838989 
	C318.985931,538.609802 318.388794,538.380615 317.918060,538.113098 
	C317.918060,538.113098 317.912933,538.245117 317.677338,537.642822 
	C317.084808,537.447327 316.492279,537.251831 315.970032,537.023621 
	C315.970032,537.023621 315.972351,537.101135 315.663605,536.536804 
	C315.053833,536.394531 314.444061,536.252319 313.938629,536.080688 
	C313.938629,536.080688 313.936371,536.189087 313.724243,535.503418 
	C311.795258,534.682739 309.866272,533.862061 307.008057,533.020203 
	C291.592133,533.011230 276.176147,532.976990 260.760437,533.031433 
	C259.187897,533.036926 257.617249,533.574036 255.615753,534.027039 
	C255.615753,534.027039 255.156204,534.037659 254.483032,534.543274 
	C254.319519,535.341675 254.015106,536.139709 254.013458,536.938477 
	C253.984711,550.875671 253.973495,564.813049 254.031708,578.750061 
	C254.036194,579.824768 254.586044,580.897156 255.052460,582.367004 
	C255.052460,582.367004 255.038101,582.798035 255.518158,583.495117 
	C273.675171,583.326721 291.832153,583.158325 310.708405,582.929077 
	C312.928375,581.435242 315.148346,579.941406 317.504364,578.382446 
	C317.504364,578.382446 317.607849,578.272705 318.259979,578.664001 
	C318.793213,578.039001 319.326447,577.414001 319.900146,576.903503 
	C319.900146,576.903503 319.778687,576.901245 320.327637,576.733154 
	C320.518890,576.414978 320.710114,576.096802 320.919678,575.920410 
	C320.919678,575.920410 320.777771,575.903198 321.329346,575.724487 
M315.311829,469.694977 
	C315.311829,469.694977 315.157349,469.497559 315.427399,468.897522 
	C314.886536,468.655212 314.345673,468.412933 313.906647,468.119232 
	C313.906647,468.119232 313.871857,468.227875 313.690643,467.534027 
	C311.957825,466.373352 310.374054,464.687744 308.465546,464.145966 
	C301.479614,462.162994 294.478790,461.114410 287.009399,461.794952 
	C277.820129,462.632202 268.495056,461.908813 259.233398,462.095551 
	C257.826508,462.123962 256.445282,463.425690 255.028992,464.604034 
	C255.028992,464.604034 254.866257,465.040833 254.312653,465.652191 
	C254.220398,478.521454 254.116837,491.390686 254.073486,504.260101 
	C254.071564,504.826843 254.619873,505.395416 255.146790,506.260559 
	C255.146790,506.260559 255.074585,506.632629 255.494614,507.374268 
	C256.109802,507.573273 256.724884,507.945465 257.340210,507.945923 
	C272.094666,507.956970 286.849182,507.928589 301.603577,507.878571 
	C301.631042,507.878510 301.657104,507.451416 301.683289,507.223969 
	C301.034393,507.094055 300.385468,506.964142 300.359528,506.431854 
	C301.584229,506.337433 302.808929,506.243011 304.540710,506.653442 
	C308.107819,506.576965 311.908081,506.992157 313.486176,502.456848 
	C313.486176,502.456848 313.543091,502.350189 314.202393,502.607635 
	C314.713135,501.941162 315.223846,501.274719 315.800079,500.780121 
	C315.800079,500.780121 315.618042,500.753906 316.236206,500.667419 
	C316.359344,500.302216 316.482483,499.936981 316.611694,499.731445 
	C316.611694,499.731445 316.497742,499.619446 317.188843,499.615997 
	C317.420929,499.020508 317.652985,498.425018 317.911377,497.935364 
	C317.911377,497.935364 317.802612,497.927460 318.502136,497.714386 
	C319.341980,495.483307 320.181824,493.252258 321.606262,490.449890 
	C321.407135,486.968781 321.208008,483.487671 320.625610,480.001190 
	C320.625610,480.001190 320.242340,479.998077 320.048676,479.505463 
	C320.071381,479.330536 320.094116,479.155579 320.630524,478.438019 
	C321.591766,474.846924 320.862946,472.129181 316.961914,471.038208 
	C316.961914,471.038208 316.881378,471.150696 316.879059,470.487091 
	C316.422852,470.274048 315.966644,470.061005 315.311829,469.694977 
z"/>
<path fill="#4FC219" opacity="1.000000" stroke="none" 
	d="
M897.991760,465.999084 
	C880.123657,489.362854 862.245239,512.718689 844.391113,536.093201 
	C832.891479,551.148621 821.427673,566.231445 810.064453,582.051636 
	C811.848938,583.200134 813.515808,583.942688 815.184570,583.946960 
	C842.822083,584.017944 870.459900,584.014648 898.097473,583.955505 
	C900.041687,583.951355 901.984741,583.381470 903.951294,583.538086 
	C903.974182,592.906372 903.974182,601.811279 903.974182,610.537903 
	C857.128784,610.537903 811.237305,610.537903 764.921631,610.537903 
	C764.921631,600.599548 764.921631,591.117310 764.921631,581.635010 
	C776.012390,567.315063 787.039062,552.944946 798.208618,538.686707 
	C816.167236,515.762024 834.225159,492.915161 852.224548,470.022430 
	C853.675293,468.177368 854.998840,466.232269 855.866089,463.834473 
	C853.702332,463.227112 852.054016,463.027100 850.405518,463.024536 
	C822.617920,462.981567 794.830383,462.963165 767.030701,462.474640 
	C767.013245,455.692352 767.301147,449.356323 766.906128,443.063171 
	C766.610474,438.354065 767.954285,436.826080 772.878967,436.878906 
	C796.650452,437.134125 820.426270,436.993866 844.200500,436.993652 
	C860.825867,436.993500 877.456238,437.220520 894.073364,436.850708 
	C898.907349,436.743134 900.908020,438.563049 900.881104,442.820587 
	C900.838379,449.595123 900.371033,456.366943 900.083252,463.139923 
	C900.083252,463.139923 900.048279,463.051239 899.758667,463.057739 
	C898.976624,464.042542 898.484192,465.020813 897.991760,465.999084 
z"/>
<path fill="#4FC319" opacity="1.000000" stroke="none" 
	d="
M227.056061,390.016174 
	C231.340881,384.500610 235.105453,378.457062 240.037094,373.597992 
	C246.793152,366.941223 254.020889,360.575439 261.839508,355.249023 
	C267.301727,351.527832 274.092163,349.756378 280.946350,347.401917 
	C285.349518,347.306152 289.089661,346.844727 292.843048,346.554108 
	C302.335022,345.819061 311.832947,345.160828 322.120117,344.414398 
	C321.424683,346.747406 321.108063,347.809448 320.458130,348.947754 
	C319.689240,349.258301 319.230957,349.458496 318.821503,349.731812 
	C299.703766,362.492065 280.651062,375.350891 261.455566,387.992889 
	C248.066589,396.810730 234.482544,405.332367 220.706696,413.750000 
	C220.792374,411.330383 221.014969,409.111450 221.552063,406.971466 
	C222.572189,402.906891 223.772339,398.887512 224.897690,394.849335 
	C224.897690,394.849335 224.922897,394.943176 225.198380,394.849182 
	C226.001251,393.175537 226.528656,391.595856 227.056061,390.016174 
z"/>
<path fill="#4FC319" opacity="1.000000" stroke="none" 
	d="
M169.029129,401.913544 
	C140.764709,389.389587 125.460732,367.887207 124.254204,336.213867 
	C124.838356,334.663086 125.112625,333.731781 124.981712,334.176300 
	C140.053711,346.566895 155.420532,359.398224 171.007431,371.956390 
	C185.762985,383.844757 200.340088,395.877106 211.724258,411.292847 
	C201.146057,412.625580 191.693573,409.191193 182.167068,406.085052 
	C178.767563,404.976654 175.298599,404.081207 171.861328,403.088562 
	C171.861328,403.088562 171.947037,403.063263 171.863770,402.810089 
	C170.863388,402.342438 169.946259,402.127991 169.029129,401.913544 
z"/>
<path fill="#38A214" opacity="1.000000" stroke="none" 
	d="
M212.001831,410.994873 
	C200.340088,395.877106 185.762985,383.844757 171.007431,371.956390 
	C155.420532,359.398224 140.053711,346.566895 124.981712,334.176300 
	C125.112625,333.731781 124.838356,334.663086 124.313324,335.781677 
	C123.905823,334.492035 123.749077,333.015076 123.531319,330.963165 
	C125.146225,330.963165 126.708336,330.963165 128.753815,331.437408 
	C132.871002,332.248657 136.504822,332.585693 140.138657,332.922729 
	C140.138657,332.922729 140.590378,332.939301 141.052795,333.256958 
	C148.383423,335.343262 155.251617,337.111847 162.119812,338.880463 
	C162.119812,338.880463 162.010742,338.950714 162.197937,339.205505 
	C167.294754,341.934784 172.204391,344.409271 177.114029,346.883759 
	C177.114029,346.883759 177.015549,346.994507 177.161484,347.182861 
	C177.636780,347.503418 177.966141,347.635681 178.295502,347.767944 
	C178.295502,347.767944 178.165405,347.797577 178.241913,348.082947 
	C179.265717,348.860748 180.212997,349.353210 181.160278,349.845642 
	C181.160278,349.845642 180.994431,349.980011 181.072510,350.268433 
	C181.892944,350.896210 182.635300,351.235626 183.377655,351.575012 
	C183.282120,351.717468 183.186569,351.859924 183.215683,352.135681 
	C184.037186,352.565887 184.734024,352.862823 185.430847,353.159790 
	C185.430847,353.159790 185.670975,353.331604 185.580032,353.712799 
	C185.783966,354.119080 186.078827,354.144165 186.373703,354.169250 
	C186.373703,354.169281 186.618851,354.275513 186.576111,354.676758 
	C187.072647,355.334778 187.611908,355.591583 188.151169,355.848358 
	C188.151169,355.848358 188.036667,355.973785 188.161331,356.152954 
	C188.582245,356.513367 188.878510,356.694550 189.174774,356.875732 
	C189.174774,356.875732 189.076538,356.921722 189.181152,357.125610 
	C189.578781,357.518829 189.871796,357.708130 190.164825,357.897430 
	C190.515350,357.919952 190.783524,358.080261 191.031784,358.970642 
	C191.901672,360.152557 192.709137,360.742126 193.516586,361.331726 
	C193.516586,361.331726 193.532501,361.456635 193.484940,361.798187 
	C193.770599,362.302032 194.103821,362.464325 194.437027,362.626648 
	C194.437027,362.626648 194.322342,362.721466 194.342468,362.953064 
	C194.692825,363.370850 195.023087,363.557098 195.353333,363.743317 
	C195.353333,363.743317 195.216858,363.800964 195.265778,364.014587 
	C195.612106,364.440216 195.909546,364.652222 196.206985,364.864197 
	C196.206985,364.864197 196.111221,364.891937 196.191742,365.100220 
	C196.550797,365.510376 196.829315,365.712250 197.107834,365.914124 
	C197.107834,365.914124 196.997772,365.992310 197.057343,366.273651 
	C197.546783,366.944214 197.976654,367.333435 198.406525,367.722656 
	C198.406540,367.722656 198.264877,367.796722 198.295944,368.005524 
	C198.619308,368.433807 198.911606,368.653290 199.203918,368.872742 
	C199.203918,368.872742 199.075378,368.938965 199.091675,369.226074 
	C199.796646,370.317169 200.485321,371.121155 201.173981,371.925171 
	C208.284637,382.920471 213.059769,394.676300 213.026947,408.025574 
	C213.025116,408.767181 213.505814,409.510010 213.500961,410.622406 
	C212.827271,410.993347 212.414551,410.994110 212.001831,410.994873 
z"/>
<path fill="#38A214" opacity="1.000000" stroke="none" 
	d="
M220.985641,413.986328 
	C234.482544,405.332367 248.066589,396.810730 261.455566,387.992889 
	C280.651062,375.350891 299.703766,362.492065 318.821503,349.731812 
	C319.230957,349.458496 319.689240,349.258301 320.760681,348.987885 
	C321.598633,348.954102 321.800720,348.956421 322.002808,348.958771 
	C316.392731,359.802216 312.038971,371.571106 304.887573,381.279114 
	C293.232574,397.100830 276.542969,406.630096 257.653534,412.004120 
	C245.666504,415.414398 233.383072,416.529541 220.599335,415.682098 
	C220.498444,414.901062 220.742050,414.443695 220.985641,413.986328 
z"/>
<path fill="#3BBB0B" opacity="1.000000" stroke="none" 
	d="
M416.500549,609.439697 
	C415.570557,610.306030 414.651306,611.912720 413.708923,611.926331 
	C401.901306,612.097839 390.090332,612.038757 377.718781,612.038757 
	C382.698730,598.293335 387.536285,584.965088 392.356995,571.630737 
	C408.261658,527.637695 424.194427,483.654816 439.994385,439.624237 
	C441.226685,436.190216 442.757660,434.788788 446.632263,434.873383 
	C459.773529,435.160248 472.924927,434.982910 486.641174,434.982910 
	C488.795197,441.345276 490.949951,447.709808 493.081451,454.507263 
	C493.058167,454.940186 492.968811,455.018188 492.687469,454.807922 
	C490.599335,450.175751 488.383179,445.866394 487.126251,441.293396 
	C486.253448,438.118073 485.042572,436.897125 481.754852,436.938873 
	C470.261597,437.084900 458.762115,437.147491 447.272095,436.905487 
	C443.667114,436.829529 442.065704,437.955170 440.946655,441.401733 
	C436.711792,454.444733 432.305542,467.438416 427.641937,480.334290 
	C421.719727,496.710480 415.431580,512.953918 409.398254,529.290405 
	C402.036804,549.223145 394.759979,569.187195 387.480865,589.150208 
	C384.945007,596.104858 382.511383,603.096802 380.011810,610.125793 
	C380.865753,610.507812 381.297577,610.868164 381.731415,610.870605 
	C391.892181,610.927734 402.054047,611.015381 412.212952,610.884094 
	C413.481995,610.867676 414.735596,609.655579 416.120331,609.110413 
	C416.244324,609.223328 416.500549,609.439697 416.500549,609.439697 
z"/>
<path fill="#3BBB0B" opacity="1.000000" stroke="none" 
	d="
M900.397339,462.946716 
	C900.371033,456.366943 900.838379,449.595123 900.881104,442.820587 
	C900.908020,438.563049 898.907349,436.743134 894.073364,436.850708 
	C877.456238,437.220520 860.825867,436.993500 844.200500,436.993652 
	C820.426270,436.993866 796.650452,437.134125 772.878967,436.878906 
	C767.954285,436.826080 766.610474,438.354065 766.906128,443.063171 
	C767.301147,449.356323 767.013245,455.692352 766.715942,462.492615 
	C765.994141,462.987061 765.574951,462.998840 765.155762,463.010620 
	C765.155762,453.878448 765.155762,444.746277 765.155762,435.296997 
	C810.851196,435.296997 856.499329,435.296997 902.604187,435.296997 
	C902.604187,443.213623 902.692688,451.004211 902.519165,458.788971 
	C902.489502,460.123291 901.342346,461.432648 900.397339,462.946716 
z"/>
<path fill="#23B301" opacity="1.000000" stroke="none" 
	d="
M577.049255,437.037689 
	C577.038940,493.304840 577.074158,549.572083 576.927368,605.838867 
	C576.916321,610.086548 578.233643,611.204590 582.304993,611.078003 
	C591.256775,610.799622 600.223145,610.991699 609.997559,610.991699 
	C609.997559,608.455811 609.997437,606.367493 609.997559,604.279114 
	C609.999451,569.320129 609.993164,534.361206 610.024841,499.402252 
	C610.026672,497.436707 610.341003,495.471466 610.866333,493.278137 
	C611.179749,530.680725 611.136597,568.311340 611.093994,605.941895 
	C611.091919,607.762451 611.093811,609.583008 611.093811,611.704041 
	C599.456543,611.704041 587.917236,611.704041 575.989014,611.704041 
	C575.989014,610.647461 575.989014,609.692322 575.989075,608.737183 
	C575.990540,551.620667 575.991394,494.504089 576.000366,437.387543 
	C576.000488,436.726288 576.104858,436.065002 576.583130,435.588745 
	C577.020203,436.195068 577.034729,436.616394 577.049255,437.037689 
z"/>
<path fill="#3BBB0B" opacity="1.000000" stroke="none" 
	d="
M730.515869,435.061951 
	C729.231812,435.742432 727.497620,436.855103 725.731689,436.907959 
	C718.755981,437.116821 711.758057,437.245056 704.792969,436.902496 
	C700.322937,436.682587 698.854309,437.895233 698.883667,442.634613 
	C699.095642,476.877899 699.018005,511.123108 698.946960,545.367554 
	C698.943176,547.189270 698.169922,549.009338 697.352417,550.907715 
	C696.950012,512.482849 696.950012,473.980438 696.950012,435.007111 
	C708.233643,435.007111 719.142395,435.007111 730.515869,435.061951 
z"/>
<path fill="#23B301" opacity="1.000000" stroke="none" 
	d="
M217.980438,431.017670 
	C217.986053,488.930695 218.058365,546.843872 217.879822,604.756348 
	C217.864334,609.782104 219.067673,611.178284 224.190552,611.121887 
	C249.815628,610.839661 275.445587,611.025269 301.073578,610.960266 
	C305.843781,610.948181 310.612976,610.542297 315.672791,610.597290 
	C309.489349,611.251038 303.017242,611.915588 296.541870,611.948669 
	C271.712189,612.075500 246.881439,611.999695 222.051086,611.999573 
	C220.429672,611.999512 218.808243,611.999573 216.865341,611.999573 
	C216.865341,609.923950 216.864639,608.298035 216.865448,606.672180 
	C216.892502,552.179077 216.938232,497.686005 216.906815,443.192932 
	C216.904633,439.410217 216.329239,435.627808 216.396667,431.423126 
	C217.175430,431.006531 217.577927,431.012115 217.980438,431.017670 
z"/>
<path fill="#23B301" opacity="1.000000" stroke="none" 
	d="
M764.594482,581.871094 
	C764.921631,591.117310 764.921631,600.599548 764.921631,610.537903 
	C811.237305,610.537903 857.128784,610.537903 903.974182,610.537903 
	C903.974182,601.811279 903.974182,592.906372 903.976868,583.307922 
	C903.979553,582.614319 904.008301,582.153870 904.008301,582.153870 
	C904.344788,582.603577 904.972046,583.051514 904.974792,583.503235 
	C905.031799,592.807983 905.017761,602.113037 905.017761,611.712463 
	C857.897827,611.712463 811.011047,611.712463 764.267273,611.712463 
	C764.267273,601.895142 764.267273,592.001221 764.594482,581.871094 
z"/>
<path fill="#3BBB0B" opacity="1.000000" stroke="none" 
	d="
M493.101624,454.899811 
	C496.929535,464.662445 500.839722,474.419067 504.474884,484.277161 
	C515.214050,513.400085 525.846558,542.562378 536.506409,571.714478 
	C536.785583,572.478149 536.899841,573.302124 537.067627,574.526123 
	C537.044189,574.954346 536.964294,575.020264 536.682617,574.809448 
	C530.441528,559.190308 524.325745,543.840027 518.568909,528.356323 
	C513.345581,514.307678 508.465576,500.130188 503.524078,485.978149 
	C499.929871,475.684662 496.481964,465.340027 492.968811,455.018188 
	C492.968811,455.018188 493.058167,454.940186 493.101624,454.899811 
z"/>
<path fill="#3BBB0B" opacity="1.000000" stroke="none" 
	d="
M330.971619,440.588684 
	C297.038513,433.054932 262.421906,438.711700 228.088150,436.949799 
	C226.103561,436.847931 224.151184,436.118073 222.127045,435.270874 
	C249.124557,434.904266 276.190430,434.512451 303.226776,435.230652 
	C312.456482,435.475861 321.612152,438.509247 330.971619,440.588684 
z"/>
<path fill="#3BBB0B" opacity="1.000000" stroke="none" 
	d="
M903.544189,582.081299 
	C904.008301,582.153870 903.979553,582.614319 903.953979,582.844482 
	C901.984741,583.381470 900.041687,583.951355 898.097473,583.955505 
	C870.459900,584.014648 842.822083,584.017944 815.184570,583.946960 
	C813.515808,583.942688 811.848938,583.200134 810.090942,582.404663 
	C841.027222,582.008423 872.053650,582.008606 903.544189,582.081299 
z"/>
<path fill="#3BBB0B" opacity="1.000000" stroke="none" 
	d="
M537.083008,574.919983 
	C541.859558,587.106384 546.597290,599.327148 551.524414,612.036316 
	C538.605774,612.036316 526.483032,612.122742 514.365967,611.901428 
	C513.168579,611.879578 511.387909,610.198608 510.923218,608.910645 
	C506.832916,597.573059 502.979614,586.149902 499.301636,574.376648 
	C499.547119,574.001221 500.019318,574.003418 500.341858,574.184753 
	C501.045258,574.897705 501.594482,575.375977 501.782013,575.968750 
	C505.030151,586.234863 508.137634,596.547058 511.545746,606.759155 
	C512.087524,608.382507 513.904175,610.737305 515.188477,610.774292 
	C526.254456,611.093201 537.333557,610.957642 549.119629,610.957642 
	C547.858276,607.367920 546.850159,604.603333 545.913818,601.814697 
	C542.916321,592.888000 539.945435,583.952393 536.964294,575.020264 
	C536.964294,575.020264 537.044189,574.954346 537.083008,574.919983 
z"/>
<path fill="#3BBB0B" opacity="1.000000" stroke="none" 
	d="
M217.980469,430.611633 
	C217.577927,431.012115 217.175430,431.006531 216.470825,431.005615 
	C215.103638,425.468262 214.038559,419.926239 212.923187,414.122467 
	C199.153366,413.395142 185.420441,409.749451 172.092178,403.363464 
	C175.298599,404.081207 178.767563,404.976654 182.167068,406.085052 
	C191.693573,409.191193 201.146057,412.625580 211.724258,411.292847 
	C212.414551,410.994110 212.827271,410.993347 213.549530,410.989502 
	C214.739624,412.834076 215.620178,414.681732 216.746689,417.045441 
	C219.461044,409.281006 221.904160,402.292419 224.622498,395.076599 
	C223.772339,398.887512 222.572189,402.906891 221.552063,406.971466 
	C221.014969,409.111450 220.792374,411.330383 220.706696,413.750000 
	C220.742050,414.443695 220.498444,414.901062 220.140198,415.591980 
	C220.108475,418.115051 220.134888,420.408356 220.288742,422.693054 
	C220.477234,425.492706 220.772369,428.285126 220.955978,431.528564 
	C219.748428,426.977875 218.606308,421.979340 217.464188,416.980774 
	C216.769516,417.091705 216.074844,417.202637 215.380173,417.313568 
	C216.246948,421.610901 217.113708,425.908234 217.980469,430.611633 
z"/>
<path fill="#23B301" opacity="1.000000" stroke="none" 
	d="
M498.037384,571.934448 
	C497.752930,571.764771 497.468109,571.445862 497.184082,571.446594 
	C474.766113,571.503662 452.348175,571.585754 429.476807,571.844910 
	C429.023315,572.023804 428.977203,571.983398 429.095154,571.594604 
	C430.208038,570.806702 431.201874,570.062622 432.198120,570.059448 
	C452.998993,569.992004 473.800354,569.977600 494.600800,570.091064 
	C495.752930,570.097351 496.898499,571.300781 498.026459,571.965820 
	C498.005798,571.984558 498.037384,571.934448 498.037384,571.934448 
z"/>
<path fill="#23B301" opacity="1.000000" stroke="none" 
	d="
M765.283813,463.425903 
	C765.574951,462.998840 765.994141,462.987061 766.728027,462.957306 
	C794.830383,462.963165 822.617920,462.981567 850.405518,463.024536 
	C852.054016,463.027100 853.702332,463.227112 855.651489,463.616638 
	C825.772156,463.879059 795.591980,463.860107 765.283813,463.425903 
z"/>
<path fill="#3BBB0B" opacity="1.000000" stroke="none" 
	d="
M577.512817,437.023254 
	C577.034729,436.616394 577.020203,436.195068 576.997803,435.458008 
	C589.600708,435.092377 602.211609,435.016388 614.822266,435.041229 
	C615.848267,435.043274 616.872986,435.734772 618.035400,436.497040 
	C604.773804,436.928406 591.375122,436.968628 577.512817,437.023254 
z"/>
<path fill="#23B301" opacity="1.000000" stroke="none" 
	d="
M322.233521,348.671204 
	C321.800720,348.956421 321.598633,348.954102 321.094025,348.911652 
	C321.108063,347.809448 321.424683,346.747406 322.120117,344.414398 
	C311.832947,345.160828 302.335022,345.819061 292.843048,346.554108 
	C289.089661,346.844727 285.349518,347.306152 281.329468,347.425507 
	C295.143585,343.849121 309.406799,343.155579 324.192017,344.206573 
	C323.556244,345.743652 323.010254,347.063660 322.233521,348.671204 
z"/>
<path fill="#3BBB0B" opacity="1.000000" stroke="none" 
	d="
M350.400879,501.974945 
	C350.757477,500.175201 351.271973,498.134155 352.084442,496.219543 
	C355.918945,487.183136 355.768524,477.908264 353.927704,468.507355 
	C353.612915,466.899628 353.328735,465.285858 353.076874,463.248047 
	C359.074432,476.232483 358.036346,489.208466 350.400879,501.974945 
z"/>
<path fill="#23B301" opacity="1.000000" stroke="none" 
	d="
M362.390137,569.936523 
	C362.709808,559.564880 361.171387,549.339355 357.160950,539.124512 
	C363.614471,548.250854 363.748901,558.886536 362.390137,569.936523 
z"/>
<path fill="#3BBB0B" opacity="1.000000" stroke="none" 
	d="
M425.858948,581.992493 
	C422.877594,590.942322 419.896210,599.892090 416.707703,609.140808 
	C416.500549,609.439697 416.244324,609.223328 416.114014,608.722839 
	C418.988708,599.481567 421.993744,590.740784 425.213806,581.998596 
	C425.428864,581.997192 425.858948,581.992493 425.858948,581.992493 
z"/>
<path fill="#23B301" opacity="1.000000" stroke="none" 
	d="
M346.155151,526.441162 
	C341.194916,524.621338 336.024414,522.589966 330.956665,520.328308 
	C330.162048,519.973694 329.251038,517.873779 329.380829,517.765625 
	C330.620453,516.732910 332.072662,515.955505 333.861115,515.183350 
	C332.785126,516.174194 331.311890,517.086487 329.995911,517.901489 
	C335.299194,520.639709 340.638977,523.396729 346.155151,526.441162 
z"/>
<path fill="#23B301" opacity="1.000000" stroke="none" 
	d="
M161.957275,338.562134 
	C155.251617,337.111847 148.383423,335.343262 141.276093,333.291931 
	C147.956223,334.754059 154.875473,336.498932 161.957275,338.562134 
z"/>
<path fill="#3BBB0B" opacity="1.000000" stroke="none" 
	d="
M356.375488,587.941528 
	C357.867981,582.585510 359.645264,577.029297 361.705750,571.237427 
	C360.212708,576.581604 358.436493,582.161499 356.375488,587.941528 
z"/>
<path fill="#23B301" opacity="1.000000" stroke="none" 
	d="
M176.937515,346.595551 
	C172.204391,344.409271 167.294754,341.934784 162.234772,339.152100 
	C166.976593,341.331726 171.868805,343.819519 176.937515,346.595551 
z"/>
<path fill="#3BBB0B" opacity="1.000000" stroke="none" 
	d="
M353.163940,462.557190 
	C351.173492,459.475159 349.122742,456.016083 347.064453,452.185577 
	C349.072449,455.269470 351.088043,458.724823 353.163940,462.557190 
z"/>
<path fill="#23B301" opacity="1.000000" stroke="none" 
	d="
M139.942657,332.580444 
	C136.504822,332.585693 132.871002,332.248657 129.150665,331.530182 
	C132.624985,331.511871 136.185837,331.875000 139.942657,332.580444 
z"/>
<path fill="#3BBB0B" opacity="1.000000" stroke="none" 
	d="
M335.691925,605.379028 
	C338.094971,603.709717 340.836090,601.931702 343.956268,600.237061 
	C341.566895,601.970520 338.798431,603.620422 335.691925,605.379028 
z"/>
<path fill="#23B301" opacity="1.000000" stroke="none" 
	d="
M426.002899,581.651611 
	C425.858948,581.992493 425.428864,581.997192 425.218750,581.618652 
	C426.331512,578.154480 427.654358,575.068970 428.977203,571.983398 
	C428.977203,571.983398 429.023315,572.023804 429.045959,572.044556 
	C428.094696,575.147095 427.120758,578.228943 426.002899,581.651611 
z"/>
<path fill="#23B301" opacity="1.000000" stroke="none" 
	d="
M336.535156,514.314087 
	C338.586121,512.628052 340.980835,510.860565 343.735962,509.068054 
	C341.690552,510.772827 339.284760,512.502686 336.535156,514.314087 
z"/>
<path fill="#3BBB0B" opacity="1.000000" stroke="none" 
	d="
M327.465149,608.426697 
	C329.559021,607.401794 332.026764,606.268433 334.891602,605.261475 
	C332.805481,606.364624 330.322205,607.341431 327.465149,608.426697 
z"/>
<path fill="#23B301" opacity="1.000000" stroke="none" 
	d="
M357.288757,538.494751 
	C355.933929,537.057068 354.496887,535.281860 353.057312,533.144348 
	C354.438751,534.573792 355.822662,536.365479 357.288757,538.494751 
z"/>
<path fill="#3BBB0B" opacity="1.000000" stroke="none" 
	d="
M338.986206,444.586884 
	C337.208679,444.092255 335.247894,443.301270 333.172882,442.166443 
	C334.973419,442.645264 336.888153,443.467865 338.986206,444.586884 
z"/>
<path fill="#3BBB0B" opacity="1.000000" stroke="none" 
	d="
M226.861908,390.296082 
	C226.528656,391.595856 226.001251,393.175537 225.149857,394.846832 
	C225.439835,393.484283 226.053818,392.030121 226.861908,390.296082 
z"/>
<path fill="#3BBB0B" opacity="1.000000" stroke="none" 
	d="
M898.228516,465.804871 
	C898.484192,465.020813 898.976624,464.042542 899.803650,463.073364 
	C899.580627,463.925232 899.022949,464.767914 898.228516,465.804871 
z"/>
<path fill="#23B301" opacity="1.000000" stroke="none" 
	d="
M352.088379,531.646362 
	C351.168182,531.139221 350.113373,530.335632 349.058289,529.163879 
	C350.023285,529.647156 350.988525,530.498596 352.088379,531.646362 
z"/>
<path fill="#3BBB0B" opacity="1.000000" stroke="none" 
	d="
M346.377563,599.026001 
	C346.917480,598.139832 347.752991,597.145020 348.958893,596.222168 
	C348.443909,597.168579 347.558533,598.042908 346.377563,599.026001 
z"/>
<path fill="#3BBB0B" opacity="1.000000" stroke="none" 
	d="
M353.412659,592.026611 
	C353.890717,590.816833 354.658112,589.456482 355.783966,588.088135 
	C355.328918,589.345459 354.515442,590.610718 353.412659,592.026611 
z"/>
<path fill="#3BBB0B" opacity="1.000000" stroke="none" 
	d="
M169.309021,402.075745 
	C169.946259,402.127991 170.863388,402.342438 171.863617,402.854767 
	C171.160782,402.847748 170.374847,402.542877 169.309021,402.075745 
z"/>
<path fill="#23B301" opacity="1.000000" stroke="none" 
	d="
M500.019318,574.003418 
	C500.019318,574.003418 499.547119,574.001221 499.311249,573.990356 
	C498.797089,573.477234 498.518799,572.975037 498.138947,572.203613 
	C498.037384,571.934448 498.005798,571.984558 498.337067,572.045898 
	C499.118652,572.739258 499.569000,573.371338 500.019318,574.003418 
z"/>
<path fill="#3BBB0B" opacity="1.000000" stroke="none" 
	d="
M348.788757,504.254456 
	C348.845947,503.657928 349.133392,502.889130 349.792236,502.107910 
	C349.782104,502.757721 349.400543,503.419952 348.788757,504.254456 
z"/>
<path fill="#23B301" opacity="1.000000" stroke="none" 
	d="
M181.014481,349.568359 
	C180.212997,349.353210 179.265717,348.860748 178.267395,348.021271 
	C179.100449,348.213196 179.984573,348.752106 181.014481,349.568359 
z"/>
<path fill="#3BBB0B" opacity="1.000000" stroke="none" 
	d="
M351.550720,594.189331 
	C351.673950,593.587036 352.065186,592.851440 352.820190,592.117188 
	C352.728821,592.764404 352.273773,593.410217 351.550720,594.189331 
z"/>
<path fill="#23B301" opacity="1.000000" stroke="none" 
	d="
M201.096283,371.616882 
	C200.485321,371.121155 199.796646,370.317169 199.134674,369.167938 
	C199.780441,369.651337 200.399506,370.479950 201.096283,371.616882 
z"/>
<path fill="#23B301" opacity="1.000000" stroke="none" 
	d="
M193.354645,361.090088 
	C192.709137,360.742126 191.901672,360.152557 191.095184,359.204071 
	C191.795013,359.512939 192.493866,360.180695 193.354645,361.090088 
z"/>
<path fill="#23B301" opacity="1.000000" stroke="none" 
	d="
M183.214294,351.336670 
	C182.635300,351.235626 181.892944,350.896210 181.150009,350.194580 
	C181.783264,350.254303 182.417114,350.676300 183.214294,351.336670 
z"/>
<path fill="#3BBB0B" opacity="1.000000" stroke="none" 
	d="
M344.061218,448.601654 
	C343.489349,448.451477 342.791443,448.029114 342.068665,447.261261 
	C342.674255,447.386993 343.304718,447.858215 344.061218,448.601654 
z"/>
<path fill="#23B301" opacity="1.000000" stroke="none" 
	d="
M185.255447,352.963013 
	C184.734024,352.862823 184.037186,352.565887 183.348907,351.915771 
	C183.931671,351.963837 184.505859,352.365051 185.255447,352.963013 
z"/>
<path fill="#3BBB0B" opacity="1.000000" stroke="none" 
	d="
M347.023682,506.302643 
	C347.132996,505.754761 347.452606,505.047943 348.135498,504.401398 
	C348.077209,505.022339 347.655609,505.583038 347.023682,506.302643 
z"/>
<path fill="#3BBB0B" opacity="1.000000" stroke="none" 
	d="
M333.009491,441.611938 
	C332.540405,441.740479 331.935944,441.576477 331.186951,441.119568 
	C331.653015,440.990875 332.263550,441.155121 333.009491,441.611938 
z"/>
<path fill="#3BBB0B" opacity="1.000000" stroke="none" 
	d="
M345.315796,508.027161 
	C345.347839,507.577423 345.615509,507.023621 346.196594,506.611816 
	C346.190491,507.143585 345.870972,507.533325 345.315796,508.027161 
z"/>
<path fill="#23B301" opacity="1.000000" stroke="none" 
	d="
M198.316422,367.445435 
	C197.976654,367.333435 197.546783,366.944214 197.108459,366.229065 
	C197.475464,366.324799 197.850891,366.746521 198.316422,367.445435 
z"/>
<path fill="#23B301" opacity="1.000000" stroke="none" 
	d="
M188.062042,355.615356 
	C187.611908,355.591583 187.072647,355.334778 186.669495,354.772278 
	C187.194717,354.771820 187.583817,355.077087 188.062042,355.615356 
z"/>
<path fill="#23B301" opacity="1.000000" stroke="none" 
	d="
M347.920532,527.708984 
	C347.488647,527.742981 346.903564,527.509277 346.226044,526.956909 
	C346.678192,526.905945 347.222748,527.173584 347.920532,527.708984 
z"/>
<path fill="#23B301" opacity="1.000000" stroke="none" 
	d="
M334.503723,515.385010 
	C334.652374,514.999451 335.115967,514.567444 335.936218,514.195312 
	C335.801453,514.616272 335.310059,514.977478 334.503723,515.385010 
z"/>
<path fill="#3BBB0B" opacity="1.000000" stroke="none" 
	d="
M618.964844,437.738464 
	C618.692627,437.773560 618.379333,437.548065 618.093384,437.076233 
	C618.388428,437.045898 618.656128,437.261871 618.964844,437.738464 
z"/>
<path fill="#3BBB0B" opacity="1.000000" stroke="none" 
	d="
M344.518738,600.324585 
	C344.636932,599.966797 345.047546,599.525208 345.796722,599.084473 
	C345.693909,599.470398 345.252533,599.855591 344.518738,600.324585 
z"/>
<path fill="#3BBB0B" opacity="1.000000" stroke="none" 
	d="
M222.088898,434.645813 
	C221.786621,434.471893 221.423508,433.979767 221.057037,433.159973 
	C221.378479,433.330780 221.703262,433.829193 222.088898,434.645813 
z"/>
<path fill="#3BBB0B" opacity="1.000000" stroke="none" 
	d="
M341.941925,446.689575 
	C341.504669,446.718597 340.921265,446.485107 340.279785,445.921936 
	C340.746399,445.870483 341.271088,446.148773 341.941925,446.689575 
z"/>
<path fill="#3BBB0B" opacity="1.000000" stroke="none" 
	d="
M350.502655,595.259338 
	C350.403351,595.011597 350.569672,594.660706 351.039429,594.255310 
	C351.151367,594.519226 350.959839,594.837769 350.502655,595.259338 
z"/>
<path fill="#3BBB0B" opacity="1.000000" stroke="none" 
	d="
M349.489258,596.254028 
	C349.398163,596.005676 349.574341,595.658630 350.056915,595.267517 
	C350.161041,595.534119 349.958771,595.844727 349.489258,596.254028 
z"/>
<path fill="#3BBB0B" opacity="1.000000" stroke="none" 
	d="
M345.093811,449.655060 
	C344.883423,449.721313 344.569702,449.529480 344.169891,449.066223 
	C344.386047,448.995514 344.688263,449.196259 345.093811,449.655060 
z"/>
<path fill="#23B301" opacity="1.000000" stroke="none" 
	d="
M195.263458,363.488495 
	C195.023087,363.557098 194.692825,363.370850 194.356613,362.880005 
	C194.624954,362.794830 194.899261,363.014252 195.263458,363.488495 
z"/>
<path fill="#23B301" opacity="1.000000" stroke="none" 
	d="
M196.124054,364.605713 
	C195.909546,364.652222 195.612106,364.440216 195.282700,363.942474 
	C195.514175,363.886902 195.777649,364.117065 196.124054,364.605713 
z"/>
<path fill="#23B301" opacity="1.000000" stroke="none" 
	d="
M197.038239,365.658295 
	C196.829315,365.712250 196.550797,365.510376 196.202209,365.051514 
	C196.410980,364.997131 196.689804,365.199799 197.038239,365.658295 
z"/>
<path fill="#23B301" opacity="1.000000" stroke="none" 
	d="
M199.127441,368.613129 
	C198.911606,368.653290 198.619308,368.433807 198.308533,367.926575 
	C198.543686,367.877075 198.797318,368.115295 199.127441,368.613129 
z"/>
<path fill="#23B301" opacity="1.000000" stroke="none" 
	d="
M190.068512,357.650146 
	C189.871796,357.708130 189.578781,357.518829 189.199829,357.074707 
	C189.399994,357.014191 189.686111,357.208496 190.068512,357.650146 
z"/>
<path fill="#23B301" opacity="1.000000" stroke="none" 
	d="
M189.077576,356.630981 
	C188.878510,356.694550 188.582245,356.513367 188.201065,356.077942 
	C188.404221,356.011230 188.692307,356.198761 189.077576,356.630981 
z"/>
<path fill="#23B301" opacity="1.000000" stroke="none" 
	d="
M186.301056,354.051361 
	C186.078827,354.144165 185.783966,354.119080 185.641724,353.846924 
	C185.963531,353.679199 186.108231,353.790405 186.301056,354.051361 
z"/>
<path fill="#3BBB0B" opacity="1.000000" stroke="none" 
	d="
M340.228699,445.492218 
	C339.996338,445.617401 339.641479,445.487854 339.178406,445.084045 
	C339.415588,444.952362 339.760895,445.094940 340.228699,445.492218 
z"/>
<path fill="#3BBB0B" opacity="1.000000" stroke="none" 
	d="
M346.126648,450.668030 
	C345.918579,450.735443 345.593353,450.543549 345.171509,450.076630 
	C345.386444,450.003967 345.697998,450.206360 346.126648,450.668030 
z"/>
<path fill="#23B301" opacity="1.000000" stroke="none" 
	d="
M178.179520,347.525940 
	C177.966141,347.635681 177.636780,347.503418 177.199432,347.119263 
	C177.415482,347.006195 177.739517,347.145081 178.179520,347.525940 
z"/>
<path fill="#23B301" opacity="1.000000" stroke="none" 
	d="
M194.360596,362.404755 
	C194.103821,362.464325 193.770599,362.302032 193.528076,361.844055 
	C193.916916,361.679779 194.138718,361.891266 194.360596,362.404755 
z"/>
<path fill="#3BBB0B" opacity="1.000000" stroke="none" 
	d="
M344.302277,509.033325 
	C344.239014,508.825500 344.435699,508.531921 344.887207,508.144043 
	C344.948761,508.349030 344.755493,508.648315 344.302277,509.033325 
z"/>
<path fill="#FFFFFF" opacity="1.000000" stroke="none" 
	d="
M255.038101,582.798096 
	C255.038101,582.798035 255.052460,582.367004 255.020554,581.704285 
	C255.044495,565.373596 255.100357,549.705627 255.156204,534.037659 
	C255.156204,534.037659 255.615753,534.027039 256.293091,534.004272 
	C272.986145,533.984924 289.001801,533.988403 305.350250,534.166626 
	C308.434143,534.957275 311.185242,535.573181 313.936371,536.189087 
	C313.936371,536.189087 313.938629,536.080688 314.068481,536.347412 
	C314.789703,536.776428 315.381012,536.938782 315.972351,537.101135 
	C315.972351,537.101135 315.970032,537.023621 316.117126,537.280640 
	C316.813782,537.773499 317.363373,538.009338 317.912933,538.245117 
	C317.912933,538.245117 317.918060,538.113098 317.991028,538.384277 
	C318.548767,538.948120 319.033600,539.240784 319.518433,539.533447 
	C319.674072,539.367004 319.829712,539.200623 319.910156,539.541016 
	C320.854156,541.086304 321.873322,542.124817 322.892517,543.163269 
	C322.892517,543.163269 322.926239,543.070190 322.980286,543.447205 
	C327.744354,554.370300 327.566254,564.714050 321.751221,574.824524 
	C321.751221,574.824524 321.876068,574.874695 321.614258,574.916504 
	C321.160889,575.273254 320.969330,575.588257 320.777771,575.903198 
	C320.777771,575.903198 320.919678,575.920410 320.649597,575.952148 
	C320.179230,576.289673 319.978973,576.595459 319.778687,576.901245 
	C319.778687,576.901245 319.900146,576.903503 319.617676,576.933655 
	C318.759430,577.400146 318.183655,577.836426 317.607849,578.272705 
	C317.607849,578.272705 317.504364,578.382446 317.138062,578.555786 
	C314.480774,579.690857 312.189789,580.652649 309.472351,581.685059 
	C291.043304,582.103210 273.040710,582.450623 255.038101,582.798096 
z"/>
<path fill="#FDFEFD" opacity="1.000000" stroke="none" 
	d="
M255.074585,506.632629 
	C255.074585,506.632629 255.146790,506.260559 255.065704,505.647034 
	C254.945160,491.702637 254.905701,478.371735 254.866257,465.040833 
	C254.866257,465.040833 255.028992,464.604034 255.497589,464.278046 
	C269.073853,463.928864 282.203369,463.451447 295.279694,464.080109 
	C301.529083,464.380524 307.677643,466.779419 313.871857,468.227875 
	C313.871857,468.227875 313.906647,468.119232 313.949890,468.370819 
	C314.381226,468.914124 314.769287,469.205841 315.157349,469.497559 
	C315.157349,469.497559 315.311829,469.694977 315.550293,469.968567 
	C316.152985,470.545013 316.517181,470.847839 316.881378,471.150696 
	C316.881378,471.150696 316.961914,471.038208 317.024658,471.409058 
	C318.097198,474.180145 319.107025,476.580383 320.116882,478.980591 
	C320.094116,479.155579 320.071381,479.330536 320.119690,480.045074 
	C320.370392,480.921143 320.550140,481.257568 320.699890,481.981750 
	C320.657410,484.683716 320.644928,486.997925 320.427063,489.548157 
	C320.199188,490.193329 320.176727,490.602539 320.062744,491.370331 
	C319.248322,493.795105 318.525452,495.861298 317.802612,497.927460 
	C317.802612,497.927460 317.911377,497.935364 317.635864,498.016663 
	C317.072815,498.605133 316.785278,499.112274 316.497742,499.619446 
	C316.497742,499.619446 316.611694,499.731445 316.361816,499.765503 
	C315.947296,500.117676 315.782684,500.435791 315.618042,500.753906 
	C315.618042,500.753906 315.800079,500.780121 315.494873,500.792572 
	C314.640808,501.320068 314.091949,501.835114 313.543091,502.350159 
	C313.543091,502.350189 313.486176,502.456848 313.128296,502.618347 
	C309.858154,503.902771 306.945892,505.025696 304.033630,506.148590 
	C302.808929,506.243011 301.584229,506.337433 299.599548,506.588043 
	C284.251221,506.707031 269.662903,506.669830 255.074585,506.632629 
z"/>
<path fill="#4FC219" opacity="1.000000" stroke="none" 
	d="
M313.781250,467.880951 
	C307.677643,466.779419 301.529083,464.380524 295.279694,464.080109 
	C282.203369,463.451447 269.073853,463.928864 255.509186,464.045288 
	C256.445282,463.425690 257.826508,462.123962 259.233398,462.095551 
	C268.495056,461.908813 277.820129,462.632202 287.009399,461.794952 
	C294.478790,461.114410 301.479614,462.162994 308.465546,464.145966 
	C310.374054,464.687744 311.957825,466.373352 313.781250,467.880951 
z"/>
<path fill="#3BBB0B" opacity="1.000000" stroke="none" 
	d="
M322.120056,574.847290 
	C327.566254,564.714050 327.744354,554.370300 322.933197,543.462402 
	C324.400208,546.108765 326.911682,548.985840 327.351410,552.150696 
	C328.462921,560.151062 328.967896,568.352844 322.120056,574.847290 
z"/>
<path fill="#23B301" opacity="1.000000" stroke="none" 
	d="
M255.278137,583.146606 
	C273.040710,582.450623 291.043304,582.103210 309.496796,582.028809 
	C309.961548,582.531189 309.975372,582.760559 309.989166,582.989868 
	C291.832153,583.158325 273.675171,583.326721 255.278137,583.146606 
z"/>
<path fill="#23B301" opacity="1.000000" stroke="none" 
	d="
M305.017487,533.991821 
	C289.001801,533.988403 272.986145,533.984924 256.508087,533.922974 
	C257.617249,533.574036 259.187897,533.036926 260.760437,533.031433 
	C276.176147,532.976990 291.592133,533.011230 307.274811,533.281067 
	C306.700195,533.691895 305.858856,533.841858 305.017487,533.991821 
z"/>
<path fill="#23B301" opacity="1.000000" stroke="none" 
	d="
M255.284607,507.003448 
	C269.662903,506.669830 284.251221,506.707031 299.288025,506.789246 
	C300.385468,506.964142 301.034393,507.094055 301.683533,507.223877 
	C301.657104,507.451416 301.631042,507.878510 301.603577,507.878571 
	C286.849182,507.928589 272.094666,507.956970 257.340210,507.945923 
	C256.724884,507.945465 256.109802,507.573273 255.284607,507.003448 
z"/>
<path fill="#23B301" opacity="1.000000" stroke="none" 
	d="
M254.819611,534.290466 
	C255.100357,549.705627 255.044495,565.373596 254.935516,581.506104 
	C254.586044,580.897156 254.036194,579.824768 254.031708,578.750061 
	C253.973495,564.813049 253.984711,550.875671 254.013458,536.938477 
	C254.015106,536.139709 254.319519,535.341675 254.819611,534.290466 
z"/>
<path fill="#23B301" opacity="1.000000" stroke="none" 
	d="
M254.589447,465.346497 
	C254.905701,478.371735 254.945160,491.702637 254.948242,505.498352 
	C254.619873,505.395416 254.071564,504.826843 254.073486,504.260101 
	C254.116837,491.390686 254.220398,478.521454 254.589447,465.346497 
z"/>
<path fill="#4FC219" opacity="1.000000" stroke="none" 
	d="
M320.373718,478.709290 
	C319.107025,476.580383 318.097198,474.180145 316.965942,471.445648 
	C320.862946,472.129181 321.591766,474.846924 320.373718,478.709290 
z"/>
<path fill="#3BBB0B" opacity="1.000000" stroke="none" 
	d="
M304.287170,506.401001 
	C306.945892,505.025696 309.858154,503.902771 313.068115,502.623901 
	C311.908081,506.992157 308.107819,506.576965 304.287170,506.401001 
z"/>
<path fill="#3BBB0B" opacity="1.000000" stroke="none" 
	d="
M310.348785,582.959473 
	C309.975372,582.760559 309.961548,582.531189 309.923279,581.958130 
	C312.189789,580.652649 314.480774,579.690857 317.070007,578.588379 
	C315.148346,579.941406 312.928375,581.435242 310.348785,582.959473 
z"/>
<path fill="#3BBB0B" opacity="1.000000" stroke="none" 
	d="
M305.350250,534.166626 
	C305.858856,533.841858 306.700195,533.691895 307.739441,533.291626 
	C309.866272,533.862061 311.795258,534.682739 313.830322,535.846252 
	C311.185242,535.573181 308.434143,534.957275 305.350250,534.166626 
z"/>
<path fill="#3BBB0B" opacity="1.000000" stroke="none" 
	d="
M320.632446,489.312164 
	C320.644928,486.997925 320.657410,484.683716 320.793365,481.588196 
	C320.947510,480.540100 320.978210,480.273315 321.008881,480.006561 
	C321.208008,483.487671 321.407135,486.968781 321.303162,490.725037 
	C321.000061,491.000183 320.979828,490.981689 320.919617,490.558777 
	C320.783783,489.861267 320.708099,489.586731 320.632446,489.312164 
z"/>
<path fill="#3BBB0B" opacity="1.000000" stroke="none" 
	d="
M318.152374,497.820923 
	C318.525452,495.861298 319.248322,493.795105 320.269104,491.362305 
	C320.566986,490.995697 320.979828,490.981689 320.979828,490.981689 
	C320.979828,490.981689 321.000061,491.000183 321.010864,491.010681 
	C320.181824,493.252258 319.341980,495.483307 318.152374,497.820923 
z"/>
<path fill="#3BBB0B" opacity="1.000000" stroke="none" 
	d="
M322.905212,542.804504 
	C321.873322,542.124817 320.854156,541.086304 319.677429,539.788940 
	C320.652527,540.501892 321.785217,541.473816 322.905212,542.804504 
z"/>
<path fill="#3BBB0B" opacity="1.000000" stroke="none" 
	d="
M317.933929,578.468384 
	C318.183655,577.836426 318.759430,577.400146 319.597473,576.876404 
	C319.326447,577.414001 318.793213,578.039001 317.933929,578.468384 
z"/>
<path fill="#3BBB0B" opacity="1.000000" stroke="none" 
	d="
M313.872742,502.478882 
	C314.091949,501.835114 314.640808,501.320068 315.462128,500.706635 
	C315.223846,501.274719 314.713135,501.941162 313.872742,502.478882 
z"/>
<path fill="#3BBB0B" opacity="1.000000" stroke="none" 
	d="
M316.843262,499.617737 
	C316.785278,499.112274 317.072815,498.605133 317.622711,497.963745 
	C317.652985,498.425018 317.420929,499.020508 316.843262,499.617737 
z"/>
<path fill="#4FC219" opacity="1.000000" stroke="none" 
	d="
M315.292358,469.197540 
	C314.769287,469.205841 314.381226,468.914124 313.898987,468.396515 
	C314.345673,468.412933 314.886536,468.655212 315.292358,469.197540 
z"/>
<path fill="#4FC219" opacity="1.000000" stroke="none" 
	d="
M316.880219,470.818909 
	C316.517181,470.847839 316.152985,470.545013 315.649597,470.045044 
	C315.966644,470.061005 316.422852,470.274048 316.880219,470.818909 
z"/>
<path fill="#3BBB0B" opacity="1.000000" stroke="none" 
	d="
M319.550751,539.186218 
	C319.033600,539.240784 318.548767,538.948120 317.927795,538.403442 
	C318.388794,538.380615 318.985931,538.609802 319.550751,539.186218 
z"/>
<path fill="#3BBB0B" opacity="1.000000" stroke="none" 
	d="
M317.795135,537.943970 
	C317.363373,538.009338 316.813782,537.773499 316.081970,537.296997 
	C316.492279,537.251831 317.084808,537.447327 317.795135,537.943970 
z"/>
<path fill="#3BBB0B" opacity="1.000000" stroke="none" 
	d="
M315.817993,536.818970 
	C315.381012,536.938782 314.789703,536.776428 314.016327,536.362061 
	C314.444061,536.252319 315.053833,536.394531 315.817993,536.818970 
z"/>
<path fill="#3BBB0B" opacity="1.000000" stroke="none" 
	d="
M315.927124,500.710663 
	C315.782684,500.435791 315.947296,500.117676 316.358765,499.685669 
	C316.482483,499.936981 316.359344,500.302216 315.927124,500.710663 
z"/>
<path fill="#3BBB0B" opacity="1.000000" stroke="none" 
	d="
M320.053162,576.817200 
	C319.978973,576.595459 320.179230,576.289673 320.640442,575.881226 
	C320.710114,576.096802 320.518890,576.414978 320.053162,576.817200 
z"/>
<path fill="#4FC219" opacity="1.000000" stroke="none" 
	d="
M320.817261,480.003876 
	C320.978210,480.273315 320.947510,480.540100 320.823364,481.200439 
	C320.550140,481.257568 320.370392,480.921143 320.216492,480.291382 
	C320.242340,479.998077 320.625610,480.001190 320.817261,480.003876 
z"/>
<path fill="#3BBB0B" opacity="1.000000" stroke="none" 
	d="
M321.053558,575.813843 
	C320.969330,575.588257 321.160889,575.273254 321.612488,574.849243 
	C321.691437,575.068298 321.510406,575.396362 321.053558,575.813843 
z"/>
<path fill="#4FC319" opacity="1.000000" stroke="none" 
	d="
M500.341858,574.184753 
	C499.569000,573.371338 499.118652,572.739258 498.357727,572.027100 
	C496.898499,571.300781 495.752930,570.097351 494.600800,570.091064 
	C473.800354,569.977600 452.998993,569.992004 432.198120,570.059448 
	C431.201874,570.062622 430.208038,570.806702 429.095154,571.594604 
	C427.654358,575.068970 426.331512,578.154480 425.003723,581.619995 
	C421.993744,590.740784 418.988708,599.481567 415.989990,608.609924 
	C414.735596,609.655579 413.481995,610.867676 412.212952,610.884094 
	C402.054047,611.015381 391.892181,610.927734 381.731415,610.870605 
	C381.297577,610.868164 380.865753,610.507812 380.011810,610.125793 
	C382.511383,603.096802 384.945007,596.104858 387.480865,589.150208 
	C394.759979,569.187195 402.036804,549.223145 409.398254,529.290405 
	C415.431580,512.953918 421.719727,496.710480 427.641937,480.334290 
	C432.305542,467.438416 436.711792,454.444733 440.946655,441.401733 
	C442.065704,437.955170 443.667114,436.829529 447.272095,436.905487 
	C458.762115,437.147491 470.261597,437.084900 481.754852,436.938873 
	C485.042572,436.897125 486.253448,438.118073 487.126251,441.293396 
	C488.383179,445.866394 490.599335,450.175751 492.687439,454.807922 
	C496.481964,465.340027 499.929871,475.684662 503.524078,485.978149 
	C508.465576,500.130188 513.345581,514.307678 518.568909,528.356323 
	C524.325745,543.840027 530.441528,559.190308 536.682617,574.809448 
	C539.945435,583.952393 542.916321,592.888000 545.913818,601.814697 
	C546.850159,604.603333 547.858276,607.367920 549.119629,610.957642 
	C537.333557,610.957642 526.254456,611.093201 515.188477,610.774292 
	C513.904175,610.737305 512.087524,608.382507 511.545746,606.759155 
	C508.137634,596.547058 505.030151,586.234863 501.782013,575.968750 
	C501.594482,575.375977 501.045258,574.897705 500.341858,574.184753 
M458.112335,489.066833 
	C458.112335,489.066833 458.224548,489.086700 457.510834,489.284027 
	C457.027771,489.927155 456.343353,490.500122 456.091156,491.223724 
	C450.659149,506.810089 445.257202,522.407104 439.930450,538.029663 
	C439.629791,538.911377 440.022980,540.029602 440.239471,541.503540 
	C440.473633,541.732666 440.733734,541.927063 441.611145,542.672180 
	C456.378326,542.775940 471.145508,542.895203 485.912872,542.934326 
	C486.596710,542.936157 487.282471,542.219666 487.922668,541.097900 
	C482.982513,526.725830 478.042389,512.353821 473.628845,497.501068 
	C472.689209,490.850067 471.427826,484.319305 466.248535,478.737579 
	C466.165802,478.160858 466.083099,477.584137 466.523376,476.601440 
	C465.891602,475.464355 465.387390,474.211487 464.536041,473.273651 
	C464.329834,473.046509 462.404022,473.686127 462.242889,474.220764 
	C460.751007,479.170197 459.472626,484.183960 458.112335,489.066833 
z"/>
<path fill="#4FC219" opacity="1.000000" stroke="none" 
	d="
M320.919617,490.558777 
	C320.979828,490.981689 320.566986,490.995697 320.360626,491.003723 
	C320.176727,490.602539 320.199188,490.193329 320.427063,489.548157 
	C320.708099,489.586731 320.783783,489.861267 320.919617,490.558777 
z"/>
<path fill="#FDFEFD" opacity="1.000000" stroke="none" 
	d="
M473.102264,497.981750 
	C478.042389,512.353821 482.982513,526.725830 487.482330,541.531494 
	C471.701263,542.005676 456.360504,542.046204 441.019775,542.086670 
	C440.733734,541.927063 440.473633,541.732666 440.404999,541.006470 
	C446.455200,523.368469 452.339874,506.227600 458.224548,489.086700 
	C458.224548,489.086700 458.112335,489.066833 458.400238,488.886902 
	C460.428375,483.763397 462.168640,478.819855 464.096924,473.342133 
	C464.976929,475.036652 465.488647,476.022034 466.000397,477.007416 
	C466.083099,477.584137 466.165802,478.160858 466.557373,479.290283 
	C468.944916,485.889252 471.023590,491.935516 473.102264,497.981750 
z"/>
<path fill="#3BBB0B" opacity="1.000000" stroke="none" 
	d="
M457.867676,489.185364 
	C452.339874,506.227600 446.455200,523.368469 440.331909,540.773560 
	C440.022980,540.029602 439.629791,538.911377 439.930450,538.029663 
	C445.257202,522.407104 450.659149,506.810089 456.091156,491.223724 
	C456.343353,490.500122 457.027771,489.927155 457.867676,489.185364 
z"/>
<path fill="#23B301" opacity="1.000000" stroke="none" 
	d="
M441.315460,542.379395 
	C456.360504,542.046204 471.701263,542.005676 487.504669,541.901489 
	C487.282471,542.219666 486.596710,542.936157 485.912872,542.934326 
	C471.145508,542.895203 456.378326,542.775940 441.315460,542.379395 
z"/>
<path fill="#3BBB0B" opacity="1.000000" stroke="none" 
	d="
M473.365540,497.741394 
	C471.023590,491.935516 468.944916,485.889252 466.803894,479.455627 
	C471.427826,484.319305 472.689209,490.850067 473.365540,497.741394 
z"/>
<path fill="#3BBB0B" opacity="1.000000" stroke="none" 
	d="
M466.261902,476.804443 
	C465.488647,476.022034 464.976929,475.036652 464.096924,473.342133 
	C462.168640,478.819855 460.428375,483.763397 458.410217,488.942993 
	C459.472626,484.183960 460.751007,479.170197 462.242889,474.220764 
	C462.404022,473.686127 464.329834,473.046509 464.536041,473.273651 
	C465.387390,474.211487 465.891602,475.464355 466.261902,476.804443 
z"/>
</svg>